<svg version="1.1" id="Layer_1" xmlns="http://www.w3.org/2000/svg"
    xmlns:xlink="http://www.w3.org/1999/xlink" x="0px" y="0px"
    width="469.993px" height="447.781px" viewBox="74.181 71.482 469.993 447.781"
    enable-background="new 74.181 71.482 469.993 447.781" xml:space="preserve">
<g transform="translate(300,300)">
	<path d="M121.5-138.3c45.6,31.8,98.9,60.9,116.2,104.4c17.3,43.6-1.5,101.5-39.4,130.8
		C160.4,126.3,103.5,127,50.9,151.1c-52.601,24-100.8,71.301-139.8,68c-38.9-3.3-68.5-57.199-92.9-109.3
		c-24.3-52.199-43.4-102.5-44-158.4c-0.7-55.9,17.1-117.4,57.8-150.1c40.7-32.6,104.4-36.5,155.1-21.2
		C37.9-204.5,75.8-170.1,121.5-138.3z"/>
</g>
</svg>