<svg
  xmlns="http://www.w3.org/2000/svg"
  width="101.166"
  height="40.14"
  version="1.1"
  viewBox="0 0 26.767 10.621"
>
      <defs>
        <path d="M176.693 337.053h114.331v103.195H176.693z" />
      </defs>
      <g transform="translate(2.125 -.019)">
        <path
      d="M.8 1.563q-.059 0-.136.021-.078.019-.162.047-.083.025-.167.046-.08.019-.146.019-.068 0-.108-.022-.038-.025-.056-.062-.019-.037-.022-.08Q0 1.488 0 1.448q0-.118.068-.192.072-.075.202-.124.13-.053.313-.087.186-.037.418-.08.366-.069.667-.106.304-.037.577-.053.276-.018.54-.022.263-.003.554-.003.087 0 .137.022.05.022.071.056.025.034.028.077.006.044.006.087 0 .05-.015.109-.013.056-.047.105-.03.047-.087.078-.052.03-.13.03h-.248q-.149 0-.316.004-.168 0-.332.006-.164.003-.316.012-.149.01-.267.028-.115.016-.183.04-.068.025-.068.062 0 .038.028.124.028.087.068.19l.08.198.072.161q.025.053.056.071.03.02.084.02.127 0 .26-.016t.267-.035q.136-.021.27-.037.136-.015.27-.015.074 0 .12.028.05.024.078.065.028.037.037.08.012.044.012.075 0 .14-.087.21-.086.069-.235.103-.15.034-.348.046-.195.013-.415.035l-.074.006q-.04.006-.062.027-.022.022-.022.056 0 .01.003.016t.003.015q.028.103.065.23.037.124.068.248.035.124.056.235.022.112.022.183 0 .143-.109.217-.105.075-.3.075-.072 0-.14-.034-.065-.031-.08-.118-.05-.254-.112-.496-.062-.245-.13-.487-.028-.084-.109-.084-.093 0-.21-.006-.115-.006-.236-.025Q.7 2.84.586 2.812q-.112-.031-.202-.08-.086-.05-.142-.118-.053-.069-.053-.162 0-.059.028-.114.028-.06.071-.103.044-.046.093-.074.053-.028.1-.028.055 0 .12.028.066.028.14.062.074.034.158.062.087.028.186.028.05 0 .05-.053 0-.05-.019-.13-.015-.08-.043-.168-.028-.09-.065-.173-.034-.087-.075-.146-.025-.037-.052-.059Q.856 1.562.8 1.562z"
    />
        <path
      d="M6.204 3.15q.09-.077.177-.077.05 0 .09.024.04.025.09.078.046.071.065.118.022.043.022.087 0 .093-.093.176-.15.124-.323.224-.173.096-.363.164-.189.068-.39.102-.202.037-.4.037-.251 0-.472-.065-.22-.062-.393-.18-.17-.117-.289-.282-.117-.167-.167-.375-.028-.087-.053-.111-.021-.028-.074-.028-.115 0-.177-.056-.062-.056-.062-.161 0-.044.006-.056l.006-.062q.016-.112.06-.161.046-.05.142-.05h.046q.13 0 .183-.121.097-.214.245-.39.15-.177.335-.301.186-.127.397-.196.214-.071.434-.071.23 0 .428.068.202.065.35.183.15.118.233.276.087.158.087.341 0 .127-.05.233-.05.105-.142.186-.093.077-.227.127-.13.05-.297.065l-1.076.108q-.062 0-.103.031-.037.031-.037.084 0 .08.06.155.061.075.16.134.103.055.233.09.133.034.273.034.133 0 .273-.025.142-.028.279-.078.14-.05.27-.118.13-.07.244-.16zm-.691-.8q.046-.009.08-.043.035-.037.035-.09 0-.047-.035-.087-.034-.04-.093-.071-.058-.034-.136-.053-.077-.018-.164-.018-.127 0-.26.037-.134.037-.243.099-.108.059-.176.133-.069.072-.069.143t.087.071q.053 0 .17-.012l.261-.028.289-.04.254-.04z"
    />
        <path
      d="M8.917 1.563q.013.006.038.006.068 0 .068-.09V.514q0-.182.08-.26.084-.077.276-.077.196 0 .276.08.08.08.08.276 0 .074-.008.22l-.022.326q-.01.183-.019.394-.009.207-.009.412 0 .316.043.546.044.23.124.381.081.149.193.223.111.072.25.072.078 0 .14-.019.065-.022.152-.022.062 0 .103.065.043.062.043.152 0 .08-.05.152-.046.072-.13.124-.08.053-.189.084-.109.028-.226.028-.255 0-.465-.155-.211-.158-.317-.48-.009-.05-.03-.05-.026 0-.041.05-.084.226-.22.409-.133.18-.313.31-.177.127-.391.195-.21.068-.446.068-.249 0-.456-.084-.205-.08-.354-.226-.149-.149-.232-.347-.084-.202-.084-.434 0-.298.124-.561.124-.264.335-.46.214-.198.496-.313.282-.114.601-.114.13 0 .276.021.146.019.304.062zm-.89 1.897q.177 0 .314-.077.14-.078.245-.196.108-.12.182-.263.075-.146.121-.282.047-.137.069-.245.021-.109.021-.155 0-.034-.018-.06-.019-.027-.056-.043-.084-.021-.174-.037-.09-.018-.176-.03-.087-.013-.168-.02-.077-.005-.143-.005-.186 0-.337.055-.152.056-.26.159-.106.102-.165.244-.06.14-.06.307 0 .15.044.27.047.118.124.202.08.083.192.13.112.046.245.046z"
    />
        <path
      d="M13.202 3.15q.09-.077.177-.077.05 0 .09.024.04.025.09.078.046.071.065.118.022.043.022.087 0 .093-.093.176-.15.124-.323.224-.173.096-.363.164-.189.068-.39.102-.202.037-.4.037-.251 0-.471-.065-.22-.062-.394-.18-.17-.117-.289-.282-.117-.167-.167-.375-.028-.087-.053-.111-.021-.028-.074-.028-.115 0-.177-.056-.062-.056-.062-.161 0-.044.006-.056l.006-.062q.016-.112.06-.161.046-.05.142-.05h.047q.13 0 .182-.12.097-.215.245-.392.15-.176.335-.3.186-.127.397-.196.214-.071.434-.071.23 0 .428.068.202.065.35.183.15.118.233.276.087.158.087.341 0 .127-.05.233-.05.105-.142.186-.093.077-.227.127-.13.05-.297.065l-1.076.108q-.062 0-.103.031-.037.031-.037.084 0 .08.06.155.061.075.16.134.103.055.233.09.133.034.273.034.133 0 .273-.025.142-.028.279-.078.14-.05.27-.118.13-.07.244-.16zm-.691-.8q.046-.009.08-.043.035-.037.035-.09 0-.047-.034-.087-.035-.04-.094-.071-.058-.034-.136-.053-.077-.018-.164-.018-.127 0-.26.037-.134.037-.243.099-.108.059-.176.133-.069.072-.069.143t.087.071q.053 0 .17-.012l.261-.028.289-.04.254-.04z"
    />
        <path
      d="M15.522 1.51q-.115 0-.202.062-.087.059-.149.167-.062.106-.102.252-.04.142-.065.313-.025.17-.034.356-.01.186-.01.375 0 .248.019.49.022.24.022.444 0 .133-.1.207-.099.078-.282.078-.034 0-.077-.006-.044-.006-.084-.025-.037-.018-.068-.053-.028-.03-.031-.086-.028-.273-.08-.558-.054-.286-.134-.568-.078-.285-.19-.564-.108-.28-.25-.546-.025-.046-.044-.087-.015-.04-.015-.077 0-.047.04-.1.043-.055.105-.102.066-.046.14-.074.077-.031.149-.031.118 0 .208.164.09.161.167.518.015.062.025.087.01.025.025.025.034 0 .043-.106.037-.294.127-.505.09-.214.223-.35.137-.14.31-.205.177-.065.388-.065.12 0 .245.021.124.022.223.066.1.043.161.105.062.062.062.14 0 .055-.024.133-.022.074-.06.146-.037.068-.086.117-.047.047-.096.047-.056 0-.109-.031-.052-.034-.114-.071-.06-.038-.128-.069-.065-.034-.148-.034z"
    />
        <path
      d="M16.554.667q-.09 0-.17-.025-.078-.028-.137-.075-.056-.05-.09-.114-.034-.065-.034-.143 0-.13.102-.21.106-.081.28-.081.08 0 .154.03.075.029.13.078.06.05.094.118.034.065.034.136 0 .134-.1.211-.096.075-.263.075zm-.425.945q0-.108.093-.176.096-.072.251-.072.28 0 .298.192l.025.301q.015.168.028.357.015.186.025.387.012.199.021.394.01.192.016.372t.006.329q0 .155-.112.232-.108.078-.319.078-.096 0-.152-.047-.053-.043-.053-.13 0-.428-.021-.8-.019-.375-.044-.666-.021-.292-.043-.484-.019-.195-.019-.267z"
    />
        <path
      d="M18.56 1.271q.161 0 .313.047.152.046.267.127.118.077.19.18.07.099.07.204 0 .069-.028.134-.027.062-.074.111-.046.047-.105.078-.06.028-.124.028-.072 0-.13-.053l-.128-.121q-.065-.068-.149-.12-.08-.057-.195-.057-.112 0-.201.053-.09.053-.152.149-.06.093-.093.223-.031.127-.031.28 0 .433.164.663.164.226.471.226.146 0 .248-.046.106-.047.183-.103l.146-.102q.065-.047.133-.047.037 0 .075.025.037.022.065.06.03.033.05.077.021.043.021.086 0 .103-.102.211-.1.109-.258.199-.158.086-.353.142-.192.056-.375.056-.245 0-.45-.096-.204-.093-.353-.26-.15-.171-.233-.407-.08-.235-.08-.52 0-.31.09-.571.093-.26.254-.45.164-.192.387-.297.224-.109.487-.109z"
    />
        <path
      d="M19.664 2.8q0-.053.012-.118.013-.065.013-.143 0-.052-.047-.08l-.099-.062q-.056-.034-.102-.087-.044-.053-.044-.152 0-.071.037-.143.04-.07.115-.13.183-.136.378-.245.199-.108.394-.183.199-.074.39-.114.193-.04.37-.04.298 0 .558.11.264.11.456.302.195.189.307.446.114.254.114.546 0 .285-.12.542-.118.255-.32.447-.201.192-.474.304-.27.115-.57.115-.295 0-.546-.1-.252-.099-.434-.273-.183-.176-.286-.415-.102-.242-.102-.527zm1.436.756q.13 0 .27-.052.139-.053.254-.152.117-.103.192-.248.077-.146.077-.329 0-.186-.068-.347-.068-.161-.19-.28-.117-.12-.281-.188-.161-.069-.35-.069-.345 0-.528.18-.183.177-.183.546 0 .201.06.375.061.17.17.298.108.124.254.195.149.071.323.071z"
    />
      </g>
      <g transform="translate(-24.414 6.367)">
        <path
      d="M25.71.623q.065-.04.133-.056.069-.015.128-.015.077 0 .14.028.061.025.104.065.044.04.066.093.024.05.024.1 0 .067-.046.13-.044.061-.124.105-.161.093-.27.158-.108.065-.186.118-.074.052-.13.099-.056.046-.112.102-.08.075-.155.17-.074.097-.133.193-.056.093-.093.18-.034.087-.034.142 0 .047.025.075.024.028.07.028.05 0 .11-.034.189-.106.396-.19.211-.083.425-.142.214-.059.428-.087.214-.03.415-.03.32 0 .586.07.267.069.46.193.192.124.297.3.105.174.105.382 0 .232-.133.446t-.366.375q-.232.162-.549.258-.316.096-.682.096-.487 0-.893-.102-.403-.1-.694-.28-.289-.18-.45-.427-.158-.252-.158-.55 0-.294.08-.576.084-.285.246-.54.164-.257.406-.477.242-.223.564-.4zm2.006 2.285q0-.105-.068-.192-.065-.087-.186-.149-.118-.062-.288-.096-.168-.034-.372-.034-.388 0-.76.109-.37.105-.695.307-.077.05-.077.12 0 .05.056.103.055.05.152.096.096.046.226.09.13.043.276.074.146.031.3.05.156.018.304.018.24 0 .444-.037.208-.04.36-.105.155-.068.241-.158.087-.09.087-.196z"
    />
        <path
      d="M28.894.667q-.09 0-.17-.025-.078-.028-.137-.075-.055-.05-.09-.114-.034-.065-.034-.143 0-.13.103-.21.105-.081.279-.081.08 0 .155.03.074.029.13.078.059.05.093.118.034.065.034.136 0 .134-.099.211-.096.075-.264.075zm-.424.945q0-.108.093-.176.096-.072.25-.072.28 0 .298.192.013.134.025.301.016.168.028.357.016.186.025.387l.022.394q.009.192.015.372t.006.329q0 .155-.111.232-.109.078-.32.078-.096 0-.152-.047-.052-.043-.052-.13 0-.428-.022-.8-.019-.375-.043-.666-.022-.292-.044-.484-.018-.195-.018-.267z"
    />
        <path
      d="M31.753 1.12q.17 0 .329.052.158.053.279.146.12.093.192.223.075.13.075.288 0 .065-.031.127-.028.06-.078.106-.05.043-.115.071-.062.025-.13.025-.006 0-.012.003h-.01q-.006.003-.012.003l.012.248q.013.443.124.648.115.205.298.205.065 0 .115-.013.052-.012.096-.028.046-.018.087-.03.04-.013.08-.013.072 0 .124.062.056.062.056.149t-.068.173q-.065.087-.174.159-.108.068-.245.111-.136.044-.276.044-.241 0-.424-.199-.183-.201-.26-.589-.02-.062-.05-.062-.038 0-.066.037-.307.388-.654.583-.347.192-.685.192-.158 0-.285-.046-.127-.047-.217-.13-.087-.087-.137-.208-.046-.124-.046-.276 0-.214.093-.45.096-.235.257-.465.161-.23.372-.437.214-.208.447-.366.235-.158.477-.25.242-.094.462-.094zm-.102 1.072q.056-.105.102-.152.047-.05.133-.065.069-.009.069-.043 0-.025-.019-.053-.059-.08-.124-.14-.065-.062-.174-.062-.117 0-.263.069-.146.068-.298.183-.149.111-.294.257-.143.143-.255.294-.111.152-.18.301-.068.15-.068.267 0 .105.056.164.06.06.158.06.255 0 .555-.27.301-.27.602-.81z"
    />
        <path
      d="M33.384 1.327q0-.046.04-.09.04-.046.106-.08.065-.038.146-.06.083-.024.167-.024.046 0 .077.025.035.024.06.096.024.068.043.195.021.124.04.326.013.062.022.096.012.03.03.03.029 0 .057-.095.226-.655.654-.655.198 0 .36.124.164.124.303.407.143.279.27.738.127.455.254 1.125.007.034.01.062.003.028.003.053 0 .071-.034.124-.031.05-.084.083-.053.031-.118.047-.065.019-.13.019-.13 0-.19-.028-.055-.028-.07-.106-.09-.471-.177-.837-.084-.366-.168-.614-.08-.251-.16-.381-.082-.13-.162-.13t-.152.102q-.068.1-.133.313-.066.214-.128.543-.058.328-.114.784-.016.124-.124.199-.109.074-.276.074-.112 0-.17-.047-.06-.046-.066-.127-.028-.645-.062-1.06-.03-.419-.059-.67-.028-.254-.046-.378-.019-.124-.019-.183z"
    />
        <path
      d="M37.443 1.271q.161 0 .313.047.152.046.267.127.117.077.189.18.071.099.071.204 0 .069-.028.134-.028.062-.074.111-.047.047-.106.078-.059.028-.124.028-.071 0-.13-.053l-.127-.121q-.065-.068-.149-.12-.08-.057-.195-.057-.112 0-.202.053-.09.053-.152.149-.059.093-.093.223-.03.127-.03.28 0 .433.164.663.164.226.47.226.147 0 .249-.046.105-.047.183-.103l.146-.102q.065-.047.133-.047.037 0 .074.025.037.022.065.06.031.033.05.077.022.043.022.086 0 .103-.103.211-.099.109-.257.199-.158.086-.353.142-.193.056-.376.056-.245 0-.45-.096-.204-.093-.353-.26-.148-.171-.232-.407-.08-.235-.08-.52 0-.31.09-.571.092-.26.253-.45.165-.192.388-.297.223-.109.487-.109z"
    />
        <path
      d="M40.453 1.12q.17 0 .33.052.157.053.278.146.121.093.192.223.075.13.075.288 0 .065-.031.127-.028.06-.078.106-.05.043-.114.071-.062.025-.13.025-.007 0-.013.003h-.01q-.006.003-.012.003l.013.248q.012.443.124.648.114.205.297.205.065 0 .115-.013.053-.012.096-.028.047-.018.087-.03.04-.013.08-.013.072 0 .125.062.055.062.055.149t-.068.173q-.065.087-.173.159-.109.068-.245.111-.137.044-.276.044-.242 0-.425-.199-.183-.201-.26-.589-.02-.062-.05-.062-.037 0-.065.037-.307.388-.655.583-.347.192-.685.192-.158 0-.285-.046-.127-.047-.217-.13-.087-.087-.136-.208-.047-.124-.047-.276 0-.214.093-.45.096-.235.257-.465.162-.23.372-.437.214-.208.447-.366.236-.158.477-.25.242-.094.462-.094zm-.102 1.072q.056-.105.102-.152.047-.05.134-.065.068-.009.068-.043 0-.025-.019-.053-.059-.08-.124-.14-.065-.062-.173-.062-.118 0-.264.069-.146.068-.298.183-.148.111-.294.257-.143.143-.254.294-.112.152-.18.301-.068.15-.068.267 0 .105.055.164.06.06.159.06.254 0 .555-.27.3-.27.601-.81z"
    />
        <path
      d="M43.712 1.51q-.115 0-.201.062-.087.059-.15.167-.061.106-.102.252-.04.142-.065.313-.024.17-.034.356-.01.186-.01.375 0 .248.02.49.021.24.021.444 0 .133-.099.207-.1.078-.282.078-.034 0-.078-.006-.043-.006-.083-.025-.038-.018-.069-.053-.028-.03-.03-.086-.029-.273-.081-.558-.053-.286-.134-.568-.077-.285-.189-.564-.108-.28-.25-.546-.026-.046-.044-.087-.016-.04-.016-.077 0-.047.04-.1.044-.055.106-.102.065-.046.14-.074.077-.031.148-.031.118 0 .208.164.09.161.168.518.015.062.024.087.01.025.025.025.034 0 .044-.106.037-.294.127-.505.09-.214.223-.35.136-.14.31-.205.177-.065.388-.065.12 0 .244.021.124.022.224.066.099.043.16.105.063.062.063.14 0 .055-.025.133-.022.074-.059.146-.037.068-.087.117-.046.047-.096.047-.055 0-.108-.031-.053-.034-.115-.071-.059-.038-.127-.069-.065-.034-.149-.034z"
    />
        <path
      d="M46.918 3.15q.09-.077.177-.077.05 0 .09.024.04.025.09.078.046.071.065.118.021.043.021.087 0 .093-.093.176-.148.124-.322.224-.174.096-.363.164t-.39.102q-.202.037-.4.037-.252 0-.472-.065-.22-.062-.393-.18-.171-.117-.289-.282-.118-.167-.167-.375-.028-.087-.053-.111-.022-.028-.074-.028-.115 0-.177-.056-.062-.056-.062-.161 0-.044.006-.056l.006-.062q.015-.112.059-.161.046-.05.142-.05h.047q.13 0 .183-.12.096-.215.245-.392.149-.176.335-.3.186-.127.397-.196.213-.071.434-.071.23 0 .428.068.201.065.35.183.149.118.232.276.087.158.087.341 0 .127-.05.233-.049.105-.142.186-.093.077-.226.127-.13.05-.298.065l-1.076.108q-.062 0-.102.031-.037.031-.037.084 0 .08.058.155.062.075.162.134.102.055.232.09.134.034.273.034.133 0 .273-.025.143-.028.279-.078.14-.05.27-.118.13-.07.245-.16zm-.691-.8q.046-.009.08-.043.034-.037.034-.09 0-.047-.034-.087-.034-.04-.093-.071-.059-.034-.136-.053-.078-.018-.164-.018-.128 0-.26.037-.134.037-.243.099-.108.059-.176.133-.069.072-.069.143t.087.071q.053 0 .17-.012l.261-.028.288-.04.255-.04z"
    />
        <path
      d="M47.39.298q0-.162.092-.23Q47.575 0 47.79 0q.075 0 .13.015.056.016.094.053.037.034.059.096.024.06.04.152.04.276.08.58.044.3.081.602.04.297.074.582.035.283.06.528.027.241.04.43.015.187.015.295 0 .112-.022.19-.018.077-.068.123-.046.047-.124.068-.074.02-.186.02-.108 0-.173-.057-.062-.056-.062-.17 0-.118-.02-.313-.018-.199-.049-.44-.03-.243-.071-.515-.037-.273-.08-.54-.04-.267-.081-.512-.037-.248-.068-.437l-.05-.313q-.019-.124-.019-.14z"
    />
        <path
      d="M48.788.298q0-.162.093-.23T49.188 0q.074 0 .13.015.056.016.093.053.037.034.059.096.025.06.04.152.04.276.08.58.044.3.081.602.04.297.075.582.034.283.059.528.028.241.04.43.015.187.015.295 0 .112-.021.19-.019.077-.068.123-.047.047-.124.068-.075.02-.186.02-.109 0-.174-.057-.062-.056-.062-.17 0-.118-.019-.313-.018-.199-.05-.44-.03-.243-.07-.515-.038-.273-.081-.54-.04-.267-.08-.512-.038-.248-.069-.437l-.05-.313q-.018-.124-.018-.14z"
    />
        <path
      d="M50.819.667q-.09 0-.17-.025-.078-.028-.137-.075-.056-.05-.09-.114-.034-.065-.034-.143 0-.13.102-.21.105-.081.28-.081.08 0 .154.03.075.029.13.078.06.05.093.118.034.065.034.136 0 .134-.099.211-.096.075-.263.075zm-.425.945q0-.108.093-.176.096-.072.251-.072.28 0 .298.192l.025.301q.015.168.027.357.016.186.025.387.013.199.022.394.009.192.015.372t.006.329q0 .155-.111.232-.109.078-.32.078-.096 0-.151-.047-.053-.043-.053-.13 0-.428-.022-.8-.019-.375-.043-.666-.022-.292-.044-.484-.018-.195-.018-.267z"
    />
      </g>
    </svg>
